<svg width="120" height="120" viewBox="0 0 120 120" fill="none" xmlns="http://www.w3.org/2000/svg">
<path d="M60 10C56.2343 9.99343 52.5042 10.7293 49.0231 12.1655C45.542 13.6018 42.3782 15.7102 39.7126 18.3702C37.0471 21.0302 34.9321 24.1895 33.4885 27.6676C32.045 31.1457 31.3014 34.8743 31.3 38.64V89.06H88.59V38.64C88.5901 31.0529 85.5795 23.7757 80.2193 18.4061C74.859 13.0365 67.5872 10.0132 60 10Z" fill="#FF4834"/>
<path d="M40.28 89V38.64C40.28 33.4232 42.3524 28.42 46.0412 24.7312C49.7301 21.0424 54.7332 18.97 59.95 18.97C65.1668 18.97 70.17 21.0424 73.8588 24.7312C77.5477 28.42 79.62 33.4232 79.62 38.64V89H40.28Z" fill="#3C00E4"/>
<path d="M91.9999 89.06H27.8899V101.75H91.9999V89.06Z" fill="white"/>
<path d="M93.8201 97.99H26.0701V110H93.8201V97.99Z" fill="#3C00E4"/>
<path d="M40.28 37.57V54.24C40.9407 54.3541 41.6096 54.4143 42.28 54.42C44.0107 54.4239 45.7253 54.0865 47.3254 53.4269C48.9255 52.7673 50.3798 51.7986 51.605 50.5761C52.8302 49.3537 53.8022 47.9017 54.4654 46.3031C55.1287 44.7044 55.47 42.9907 55.47 41.26C55.5298 37.927 54.2969 34.7003 52.03 32.2563C49.7631 29.8123 46.6381 28.3407 43.31 28.15C41.43 30.9405 40.3794 34.2067 40.28 37.57Z" fill="white"/>
<path d="M82.3 78.13C86.47 78.45 89.96 76.86 94.3 76.13C98.3 75.41 102.45 76.13 106.53 76C107.648 76.0641 108.764 75.8511 109.78 75.38C110.035 75.2469 110.258 75.0584 110.431 74.8283C110.604 74.5982 110.723 74.3322 110.78 74.05C110.777 73.58 110.619 73.1242 110.332 72.7521C110.045 72.3801 109.644 72.1124 109.19 71.99C108.31 71.68 107.35 71.68 106.44 71.43C101.97 70.21 103.05 65.43 102.26 62.04C101.824 60.5145 100.933 59.1587 99.7051 58.1542C98.4772 57.1497 96.9715 56.5446 95.39 56.42C93.8196 56.3453 92.2522 56.6206 90.8012 57.2259C89.3502 57.8312 88.0518 58.7514 87 59.92C86 61.01 85.19 62.26 84.14 63.31C83.0375 64.474 81.5547 65.2048 79.96 65.37C78.16 65.37 76.62 64.09 74.74 64.49C72.6 64.94 71.23 66.71 69.74 68.12C68.9376 68.8662 68.0101 69.4653 67 69.89C66 70.32 64.59 70.64 63.92 71.56C63.6286 71.9043 63.4755 72.3446 63.4902 72.7954C63.505 73.2462 63.6867 73.6755 64 74C64.74 74.57 66.34 74.59 67.25 74.58C68.7064 74.4934 70.1672 74.5168 71.62 74.65C74.62 75.08 76.96 77.02 79.89 77.76C80.6812 77.9525 81.4875 78.0763 82.3 78.13Z" fill="white"/>
<path d="M98.0599 28.24C97.1777 31.1088 95.9486 33.8591 94.3999 36.43C92.871 39.0033 91.0598 41.3981 88.9999 43.57C86.9315 45.7484 84.5766 47.6357 81.9999 49.18C79.4156 50.7348 76.5575 51.7803 73.5799 52.26C73.5602 52.2628 73.5401 52.2617 73.5208 52.2566C73.5016 52.2516 73.4835 52.2428 73.4677 52.2307C73.4518 52.2185 73.4386 52.2034 73.4287 52.1861C73.4188 52.1689 73.4124 52.1498 73.4099 52.13C73.4041 52.0916 73.4133 52.0525 73.4357 52.0208C73.458 51.9891 73.4918 51.9673 73.5299 51.96C76.4134 51.3276 79.1646 50.1973 81.6599 48.62C84.1255 47.0341 86.383 45.1462 88.3799 43C90.4214 40.8608 92.2345 38.5149 93.7899 36C95.3816 33.5056 96.7215 30.8593 97.7899 28.1C97.8035 28.0631 97.831 28.033 97.8665 28.0161C97.9021 27.9993 97.9428 27.9971 97.9799 28.01C98.0043 28.0145 98.027 28.0253 98.0458 28.0414C98.0646 28.0575 98.0788 28.0783 98.0869 28.1017C98.095 28.1251 98.0968 28.1502 98.0921 28.1745C98.0873 28.1988 98.0762 28.2214 98.0599 28.24Z" fill="white"/>
<path d="M83.6801 52.76C85.0641 52.5901 86.4276 52.2819 87.7501 51.84C89.0736 51.4042 90.3636 50.8728 91.6101 50.25C92.8701 49.64 94.0701 48.92 95.2901 48.25L98.9101 46C98.9392 45.9747 98.9765 45.9607 99.0151 45.9607C99.0537 45.9607 99.091 45.9747 99.1201 46C99.1428 46.0284 99.1552 46.0636 99.1552 46.1C99.1552 46.1364 99.1428 46.1716 99.1201 46.2C98.0101 47.08 96.8601 47.91 95.6801 48.7C94.5038 49.5445 93.2746 50.3127 92.0001 51C90.719 51.6504 89.3798 52.1794 88.0001 52.58C86.6096 52.961 85.1715 53.1395 83.7301 53.11C83.7099 53.1102 83.6899 53.106 83.6715 53.0978C83.653 53.0895 83.6366 53.0774 83.6233 53.0622C83.61 53.047 83.6001 53.0291 83.5944 53.0097C83.5887 52.9904 83.5872 52.97 83.5901 52.95C83.5772 52.9129 83.5794 52.8721 83.5962 52.8366C83.6131 52.8011 83.6432 52.7736 83.6801 52.76Z" fill="white"/>
</svg>
