<svg xmlns="http://www.w3.org/2000/svg" viewBox="0 0 90 106"><title>Asset 6</title><rect x="10" y="10" width="80" height="96" rx="1.6" ry="1.6" fill="#4100f5"/><rect width="80" height="96" rx="1.6" ry="1.6" fill="#ffcdd2"/><rect x="10" y="39" width="30" height="5" fill="#fff"/><path d="M61.16,39.67c-6-1.28-6-3.31-6-4.08A3.6,3.6,0,0,1,56.35,33a5.73,5.73,0,0,1,4.28-1.45,6.15,6.15,0,0,1,5.54,3.39l3.48-1.78A9.69,9.69,0,0,0,63,28V23H58.57v4.77a9.38,9.38,0,0,0-4.88,2.37,7.45,7.45,0,0,0-2.49,5.45c0,6,6.9,7.42,9.16,7.9,6.13,1.29,6.08,3.69,6.06,4.59a3.6,3.6,0,0,1-1.29,2.54,6.43,6.43,0,0,1-4.77,1.54,5.93,5.93,0,0,1-5.24-4.33l-3.79.94a9.91,9.91,0,0,0,7.24,7.06v4.68H63V55.88a10.1,10.1,0,0,0,4.8-2.36,7.47,7.47,0,0,0,2.58-5.35C70.42,43.82,67.34,41,61.16,39.67Z" fill="#fff"/><rect x="10" y="54" width="30" height="5" fill="#fff"/><rect x="10" y="69" width="60" height="4.8" fill="#fff"/><rect x="10" y="24" width="30" height="5" fill="#fff"/></svg>