<svg xmlns="http://www.w3.org/2000/svg" viewBox="0 0 80 104"><title>Asset 11</title><path d="M80,9.6v92.8a1.6,1.6,0,0,1-1.6,1.6H1.6A1.6,1.6,0,0,1,0,102.4V9.6A1.6,1.6,0,0,1,1.6,8H16.14a1.61,1.61,0,0,1,1.13.47l5.6,5.6a1.61,1.61,0,0,0,2.26,0l5.6-5.6A1.61,1.61,0,0,1,31.86,8H48.14a1.61,1.61,0,0,1,1.13.47l5.6,5.6a1.61,1.61,0,0,0,2.26,0l5.6-5.6A1.61,1.61,0,0,1,63.86,8H78.4A1.6,1.6,0,0,1,80,9.6Z" fill="#4100f5"/><rect x="12" y="40.8" width="56" height="4.8" rx="1.6" ry="1.6" fill="#ffcdd2"/><rect x="12" y="63.2" width="56" height="4.8" rx="1.6" ry="1.6" fill="#ffcdd2"/><rect x="12" y="85.6" width="56" height="4.8" rx="1.6" ry="1.6" fill="#ffcdd2"/><rect x="12" y="29.6" width="16" height="4.8" rx="1.6" ry="1.6" fill="#fff"/><rect x="12" y="52" width="16" height="4.8" rx="1.6" ry="1.6" fill="#fff"/><rect x="12" y="74.4" width="16" height="4.8" rx="1.6" ry="1.6" fill="#fff"/><polygon points="31.2 0 24 7.2 16.8 0 31.2 0" fill="#ffcdd2"/><polygon points="63.2 0 56 7.2 48.8 0 63.2 0" fill="#ffcdd2"/></svg>