<svg xmlns="http://www.w3.org/2000/svg" viewBox="0 0 115 92"><title>Asset 7</title><path d="M58.5,43V25h-2V43a1,1,0,0,1-1,1h-43a1,1,0,0,0-1,1V65h2V47a1,1,0,0,1,1-1h26a1,1,0,0,1,1,1V65h2V47a1,1,0,0,1,1-1h26a1,1,0,0,1,1,1V65h2V47a1,1,0,0,1,1-1h26a1,1,0,0,1,1,1V65h2V45a1,1,0,0,0-1-1h-43A1,1,0,0,1,58.5,43Z" fill="#4100f5"/><rect x="-2.5" y="64.5" width="30" height="25" rx="2" ry="2" transform="translate(89.5 64.5) rotate(90)" fill="#fff"/><rect x="27.5" y="64.5" width="30" height="25" rx="2" ry="2" transform="translate(119.5 34.5) rotate(90)" fill="#fff"/><rect x="57.5" y="64.5" width="30" height="25" rx="2" ry="2" transform="translate(149.5 4.5) rotate(90)" fill="#fff"/><rect x="87.5" y="64.5" width="30" height="25" rx="2" ry="2" transform="translate(179.5 -25.5) rotate(90)" fill="#fff"/><circle cx="57.5" cy="15" r="15" fill="#ffcdd2"/></svg>