<svg xmlns="http://www.w3.org/2000/svg" viewBox="0 0 85.67 89.68"><title>Asset 8</title><path d="M69.55,37.4,83.07,23.88a1.16,1.16,0,0,1,2,.56,25.24,25.24,0,0,1-33.5,29.23,1.17,1.17,0,0,0-1.25.26L14.87,89.34a1.15,1.15,0,0,1-1,.32L3.58,87.85a1.17,1.17,0,0,1-1-.95L.82,76.64a1.18,1.18,0,0,1,.32-1L36.55,40.2A1.17,1.17,0,0,0,36.81,39,25.24,25.24,0,0,1,66,5.45a1.16,1.16,0,0,1,.56,2L53.08,20.93a1.16,1.16,0,0,0-.31,1.12l3.09,11.74a1.2,1.2,0,0,0,.83.83l11.74,3.09A1.16,1.16,0,0,0,69.55,37.4Z" fill="#4100f5"/><path d="M68.75,32.59,82.27,19.06a1.17,1.17,0,0,1,2,.56A25.25,25.25,0,0,1,50.72,48.86a1.16,1.16,0,0,0-1.25.26l-35.4,35.4a1.15,1.15,0,0,1-1,.32L2.77,83a1.15,1.15,0,0,1-.94-.94L0,71.82a1.16,1.16,0,0,1,.32-1l35.41-35.4A1.2,1.2,0,0,0,36,34.14,25.24,25.24,0,0,1,65.24.63a1.17,1.17,0,0,1,.56,2L52.27,16.12a1.18,1.18,0,0,0-.3,1.12L55.06,29a1.15,1.15,0,0,0,.83.83l11.74,3.09A1.16,1.16,0,0,0,68.75,32.59Z" fill="#ffcdd2"/><path d="M35.17,18.2s2,12.9,3.2,13.77,12.91,2.34,12.91,2.34-11.73,1.47-12.91,2.34-3.2,13.76-3.2,13.76-2-12.9-3.19-13.76-12.91-2.34-12.91-2.34S30.8,32.83,32,32,35.17,18.2,35.17,18.2Z" fill="#fff"/><path d="M21.17,15.31s.63,4,1,4.27a27.31,27.31,0,0,0,4,.73,27.15,27.15,0,0,0-4,.72c-.37.27-1,4.28-1,4.28s-.62-4-1-4.28a27.26,27.26,0,0,0-4-.72,27.42,27.42,0,0,0,4-.73C20.55,19.31,21.17,15.31,21.17,15.31Z" fill="#fff"/></svg>