<svg xmlns="http://www.w3.org/2000/svg" viewBox="0 0 115.76 93.64"><title>Asset 9</title><path d="M47.5,16.59.14,32.38a.2.2,0,0,0-.14.19v3.22a.2.2,0,0,0,.2.2H94.93a.2.2,0,0,0,.2-.2V32.57a.2.2,0,0,0-.14-.19L47.63,16.59A.29.29,0,0,0,47.5,16.59Z" fill="#fff"/><path d="M91,82.55H83.24a.2.2,0,0,1-.2-.2V40.73a.2.2,0,0,0-.2-.2H69.37a.2.2,0,0,0-.2.2V82.35a.2.2,0,0,1-.2.2H54.7a.2.2,0,0,1-.2-.2V40.73a.2.2,0,0,0-.2-.2H40.83a.2.2,0,0,0-.2.2V82.35a.2.2,0,0,1-.2.2H26.16a.2.2,0,0,1-.2-.2V40.73a.2.2,0,0,0-.2-.2H12.29a.2.2,0,0,0-.2.2V82.35a.2.2,0,0,1-.2.2H4.16a.2.2,0,0,0-.2.2v2.77a.2.2,0,0,1-.2.2H.2a.2.2,0,0,0-.2.2v7.52a.2.2,0,0,0,.2.2H94.93a.2.2,0,0,0,.2-.2V85.92a.2.2,0,0,0-.2-.2H91.36a.2.2,0,0,1-.2-.2V82.75A.2.2,0,0,0,91,82.55Z" fill="#fff"/><circle cx="89.76" cy="26" r="26" fill="#4100f5"/><path d="M90.28,24.15C84.9,23,84.9,21.21,84.9,20.53A3.21,3.21,0,0,1,86,18.23,5.09,5.09,0,0,1,89.81,17a5.45,5.45,0,0,1,4.91,3l3.09-1.57a8.58,8.58,0,0,0-5.94-4.62V9.36H88v4.23a8.37,8.37,0,0,0-4.34,2.11,6.61,6.61,0,0,0-2.2,4.83c0,5.3,6.12,6.59,8.13,7C95,28.68,95,30.81,94.94,31.61a3.16,3.16,0,0,1-1.15,2.26,5.68,5.68,0,0,1-4.23,1.36,5.24,5.24,0,0,1-4.64-3.84l-3.36.84A8.77,8.77,0,0,0,88,38.49v4.15h3.89V38.53a9,9,0,0,0,4.25-2.09,6.61,6.61,0,0,0,2.29-4.75C98.49,27.83,95.76,25.3,90.28,24.15Z" fill="#ffcdd2"/></svg>