<svg xmlns="http://www.w3.org/2000/svg" xmlns:xlink="http://www.w3.org/1999/xlink" viewBox="0 0 111 164.72"><defs><clipPath id="a" transform="translate(-41.5 -41.64)"><circle cx="100" cy="100" r="100" fill="none"/></clipPath></defs><title>Asset 12</title><g clip-path="url(#a)"><path d="M81.5,158.5s9,16-5,15c-5.52-.39-23-6-23-6-10-3-10-10.05-10-14.48l1-44.52h10l1,40.61c0,2.18,0,5.39,3.48,5.77Z" transform="translate(-41.5 -41.64)" fill="#fff"/><path d="M54,118.5H43.5a2,2,0,0,1-2-2v-29h10a5,5,0,0,1,5,5v9.76a1,1,0,0,0,1.89.45l1.11-2.21,4,1-3.73,12.69A6,6,0,0,1,54,118.5Z" transform="translate(-41.5 -41.64)" fill="#fff"/><path d="M140.5,196.5c-1-13-1.68-16.12-13-17l-.32-19.88a31.77,31.77,0,0,1,14.32,5.88c8,6,11,19.56,11,24Z" transform="translate(-41.5 -41.64)" fill="#fff"/><path d="M133.66,149.44,122,155.49l-10.92,5.67-8.61,4.48-8.61-4.48L83,155.49l-11.63-6.05s9.52-9.51,22.55-12.82a33.65,33.65,0,0,1,17.22,0C124.14,139.93,133.66,149.44,133.66,149.44Z" transform="translate(-41.5 -41.64)" fill="#ffcdd2"/><path d="M136.25,190.12c0,11.86-9.93,8.7-18.63,13.46-6.77,3.71-23.47,3.71-30.24,0-8.7-4.76-18.63-1.6-18.63-13.46,0-21.77,14.92-49.43,32.37-49.43.47,0,.92,0,1.38,0s.91,0,1.38,0C121.33,140.69,136.25,168.35,136.25,190.12Z" transform="translate(-41.5 -41.64)" fill="#ffcdd2"/><path d="M122,155.49l-10.92,5.67-8.61,4.48-8.61-4.48L83,155.49c4.27-6.31,11-10.36,18.51-10.36l1,0,1,0C111.06,145.13,117.76,149.18,122,155.49Z" transform="translate(-41.5 -41.64)" fill="#fff"/><path d="M111.11,124.79v36.37l-8.61,4.48-8.61-4.48V124.79A39.09,39.09,0,0,0,111.11,124.79Z" transform="translate(-41.5 -41.64)" fill="#fff"/><path d="M111.11,110.75V133c-8.11,6-11.11,6-17.22,6V110.75Z" transform="translate(-41.5 -41.64)" fill="#2d46b9" opacity="0.85"/><path d="M126.85,101.1c0,8.75-6.85,25.9-13.19,30.9-4.26,3.36-19.21,2.94-23.32-1-8.34-8-12.19-21.15-12.19-29.9C78.15,85,88.6,72,101.48,72c.35,0,.68,0,1,0s.67,0,1,0C116.4,72,126.85,85,126.85,101.1Z" transform="translate(-41.5 -41.64)" fill="#fff"/><path d="M124,63.17c0,11.89-9.64,11.19-21.53,11.19S81,75.06,81,63.17a21.53,21.53,0,0,1,43.06,0Z" transform="translate(-41.5 -41.64)" fill="#4100f5"/><path d="M122.84,72.32c-2.9,5.76-10.91,5.31-20.34,5.31s-17.44.45-20.34-5.31a21.5,21.5,0,0,1,40.68,0Z" transform="translate(-41.5 -41.64)" fill="#ffcdd2"/><path d="M126,99c-7,0-11.66-13-11.66-13C113,88,92.63,100.65,77.88,98.9c-2.46-.29-4.44-2.08-4.3-4.55.28-4.89.93-10.92,1.91-13.74,4.27-12.34,14.75-19.38,27-19.38s22.74,7,27,19.38a50.78,50.78,0,0,1,1.91,13.74C131.42,99,127.78,99,126,99Z" transform="translate(-41.5 -41.64)" fill="#4100f5"/></g></svg>