<svg xmlns="http://www.w3.org/2000/svg" xmlns:xlink="http://www.w3.org/1999/xlink" viewBox="0 0 108.56 155"><defs><clipPath id="a" transform="translate(-45.72 -55)"><circle cx="100" cy="100" r="100" fill="none"/></clipPath><clipPath id="b" transform="translate(-45.72 -55)"><path d="M126.8,145.16c-.66,3.55-5.67,25.91-27.13,25.91v0h-1v0c-21.46,0-26.47-22.36-27.13-25.91,1.61-.74,3.21-1.49,4.79-2.28,3.94-1.95,8.55-7.18,9.6-11.68V115.54c7.46,6.3,19,6.3,26.46,5.09V131.2c1,4.5,5.66,9.73,9.61,11.68C123.6,143.67,125.19,144.42,126.8,145.16Z" fill="none"/></clipPath></defs><title>Asset 5</title><g clip-path="url(#a)"><path d="M99.18,171.06H98.7v0Z" transform="translate(-45.72 -55)" fill="#5093ed"/><path d="M99.67,171.05v0h0Z" transform="translate(-45.72 -55)" fill="#5093ed"/><path d="M99.18,171.06H98.7v0Z" transform="translate(-45.72 -55)" fill="#2d46b9"/><path d="M126.8,145.16c-.66,3.55-5.67,25.91-27.13,25.91v0h-1v0c-21.46,0-26.47-22.36-27.13-25.91,1.61-.74,3.21-1.49,4.79-2.28,3.94-1.95,8.55-7.18,9.6-11.68V115.54c7.46,6.3,19,6.3,26.46,5.09V131.2c1,4.5,5.66,9.73,9.61,11.68C123.6,143.67,125.19,144.42,126.8,145.16Z" transform="translate(-45.72 -55)" fill="#fff"/><path d="M99.18,171.06H98.7v0Z" transform="translate(-45.72 -55)" fill="#5093ed"/><path d="M99.67,171.05v0h0Z" transform="translate(-45.72 -55)" fill="#5093ed"/><path d="M99.67,171.05v0h0Z" transform="translate(-45.72 -55)" fill="#2d46b9"/><g clip-path="url(#b)"><path d="M116.71,96.73c.83,7.72,1,15.21-1.19,19.66-1.52,3.16-5.83,13.54-9.23,16.07-5,3.74-14.75,4.78-20.44,2.2-3.85-1.75-10.27-11-12.43-13.75-3-3.89-4.5-11.24-5.33-19-.68-6.32-2.46-20.58-.16-26.36,7.71-19.38,33.69-20.22,43.33-4.65C114.55,76.24,116,90.41,116.71,96.73Z" transform="translate(-45.72 -55)" fill="#2d46b9"/></g><path d="M122.59,98.16c0,7.33-.68,14.38-3.28,18.33-1.85,2.82-7.25,12.12-10.89,14.16-5.38,3-15.18,3-20.56,0-3.65-2-9-11.34-10.89-14.16-2.6-3.95-3.28-11-3.28-18.33,0-6-.25-19.55,2.66-24.74,9.74-17.42,35.65-15.58,43.58,0C122.63,78.72,122.59,92.17,122.59,98.16Z" transform="translate(-45.72 -55)" fill="#fff"/><path d="M72.54,88.86c5.34-18.16,6.65-8.32,11.28-5.55,5.39,3.24,19.42-3,23.73-3.23C127,79,121,91.49,122.65,89.79c6.48-6.48,12.68-12.46,6.48-22.66-5.57-9.13-29-17.35-44.44-8C68.37,69,72.41,89.3,72.54,88.86Z" transform="translate(-45.72 -55)" fill="#ffcdd2"/><path d="M154.05,197,97,210,46,197s-1.21-30.23,1.94-36.94c4.27-9.1,24.3-15.68,24.3-15.68L92.07,152s3.73,18.71,7.33,18.71h1.2c3.6,0,7.33-18.71,7.33-18.71l19.88-7.66s20,6.58,24.3,15.68C155.26,166.77,154.05,197,154.05,197Z" transform="translate(-45.72 -55)" fill="#4100f5"/></g></svg>