<svg xmlns="http://www.w3.org/2000/svg" viewBox="0 0 126.7 38"><title>Asset 22</title><path d="M19,0A19,19,0,1,0,38,19,19,19,0,0,0,19,0Zm8.71,27.4a1.18,1.18,0,0,1-1.62.4C21.62,25.07,16,24.46,9.39,26a1.18,1.18,0,0,1-.52-2.31c7.23-1.66,13.44-.94,18.45,2.12A1.17,1.17,0,0,1,27.71,27.4ZM30,22.23a1.48,1.48,0,0,1-2,.49c-5.11-3.14-12.89-4-18.93-2.22a1.48,1.48,0,1,1-.86-2.83c6.9-2.09,15.48-1.08,21.34,2.52A1.48,1.48,0,0,1,30,22.23Zm.2-5.39c-6.13-3.63-16.23-4-22.07-2.19A1.78,1.78,0,0,1,6,13.46a1.76,1.76,0,0,1,1.18-2.21c6.72-2,17.87-1.65,24.92,2.54a1.77,1.77,0,0,1-1.81,3.05Z" fill="#fff"/><path d="M51.69,17.54c-3.28-.78-3.86-1.33-3.86-2.48s1-1.83,2.55-1.83a7.42,7.42,0,0,1,4.48,1.71A.33.33,0,0,0,55,15a.24.24,0,0,0,.14-.09l1.6-2.26a.21.21,0,0,0,0-.29,9.69,9.69,0,0,0-6.3-2.19c-3.54,0-6,2.13-6,5.17,0,3.26,2.14,4.42,5.82,5.31C53.37,21.35,53.9,22,53.9,23S52.83,25,51.11,25a7.56,7.56,0,0,1-5.23-2.16.17.17,0,0,0-.15,0,.21.21,0,0,0-.15.07L43.78,25a.23.23,0,0,0,0,.3A10.76,10.76,0,0,0,51,28.06c3.81,0,6.28-2.08,6.28-5.31C57.32,20,55.69,18.51,51.69,17.54Z" fill="#fff"/><path d="M66,14.3a5.17,5.17,0,0,0-4.13,2v-1.5a.21.21,0,0,0-.21-.22H58.67a.21.21,0,0,0-.21.22v16.7a.21.21,0,0,0,.21.21h2.94a.21.21,0,0,0,.21-.21V26.22A5.3,5.3,0,0,0,66,28.09c3.08,0,6.19-2.37,6.19-6.89S69,14.3,66,14.3Zm2.78,6.9c0,2.3-1.42,3.91-3.46,3.91a3.65,3.65,0,0,1-3.52-3.91,3.65,3.65,0,0,1,3.52-3.91C67.27,17.29,68.73,18.93,68.73,21.2Z" fill="#fff"/><path d="M80.12,14.3a6.91,6.91,0,1,0,7,6.9A6.93,6.93,0,0,0,80.12,14.3Zm0,10.83a3.74,3.74,0,0,1-3.7-3.93,3.65,3.65,0,0,1,3.65-3.89,3.75,3.75,0,0,1,3.72,3.94A3.66,3.66,0,0,1,80.12,25.13Z" fill="#fff"/><path d="M95.61,14.57H92.37v-3.3a.21.21,0,0,0-.21-.22H89.22a.21.21,0,0,0-.21.22v3.3H87.6a.22.22,0,0,0-.22.22v2.52a.22.22,0,0,0,.22.22H89v6.53c0,2.64,1.31,4,3.9,4a5.3,5.3,0,0,0,2.75-.69.2.2,0,0,0,.11-.18V24.76a.21.21,0,0,0-.31-.19,3.61,3.61,0,0,1-1.72.42c-.94,0-1.37-.43-1.37-1.39V17.53h3.24a.21.21,0,0,0,.21-.22V14.79A.21.21,0,0,0,95.61,14.57Z" fill="#fff"/><path d="M106.87,14.59v-.41c0-1.19.46-1.73,1.48-1.73a5,5,0,0,1,1.66.31.21.21,0,0,0,.19,0,.21.21,0,0,0,.09-.18V10.08a.22.22,0,0,0-.15-.21,8.17,8.17,0,0,0-2.44-.35c-2.72,0-4.15,1.53-4.15,4.42v.62h-1.41a.22.22,0,0,0-.22.22v2.53a.22.22,0,0,0,.22.22h1.41V27.6a.22.22,0,0,0,.21.22h2.94a.22.22,0,0,0,.22-.22V17.53h2.74l4.2,10.07c-.48,1.06-.94,1.27-1.59,1.27a3.3,3.3,0,0,1-1.61-.46.23.23,0,0,0-.18,0,.19.19,0,0,0-.12.11l-1,2.19a.2.2,0,0,0,.09.27,6.13,6.13,0,0,0,3.14.81c2.17,0,3.37-1,4.43-3.73l5.09-13.17a.2.2,0,0,0,0-.2.21.21,0,0,0-.18-.09h-3.06a.2.2,0,0,0-.2.14l-3.13,9-3.43-9a.21.21,0,0,0-.2-.13Z" fill="#fff"/><rect x="97.19" y="14.57" width="3.37" height="13.25" rx="0.22" ry="0.22" fill="#fff"/><path d="M98.89,8.74a2.11,2.11,0,1,0,2.1,2.1A2.1,2.1,0,0,0,98.89,8.74Z" fill="#fff"/><path d="M124.62,18.69a2.07,2.07,0,1,1,2.08-2.08A2.06,2.06,0,0,1,124.62,18.69Zm0-3.94a1.85,1.85,0,0,0-1.86,1.88,1.86,1.86,0,1,0,1.86-1.88Zm.46,2.08.58.82h-.49l-.53-.75h-.45v.75h-.41V15.48h1c.5,0,.83.25.83.69A.65.65,0,0,1,125.09,16.83Zm-.35-1h-.54v.68h.54c.27,0,.43-.13.43-.34S125,15.85,124.74,15.85Z" fill="#fff"/></svg>